<svg width="48" height="48" viewBox="0 0 48 48" fill="none" xmlns="http://www.w3.org/2000/svg">
<rect x="1" y="1" width="46" height="46" rx="7" fill="white"/>
<rect x="1" y="1" width="46" height="46" rx="7" stroke="#1958A8" stroke-width="2"/>
<circle cx="24" cy="24" r="24" fill="white"/>
<g clip-path="url(#clip0_94_329)">
<path d="M33.8719 12.9058H14.13C13.4538 12.9058 12.9056 13.4539 12.9056 14.1301V33.872C12.9056 34.5482 13.4538 35.0964 14.13 35.0964H33.8719C34.5481 35.0964 35.0963 34.5482 35.0963 33.872V14.1301C35.0963 13.4539 34.5481 12.9058 33.8719 12.9058Z" fill="#1958A8"/>
<path d="M28.215 35.0943V26.5012H31.0988L31.53 23.1524H28.215V21.0149C28.215 20.0456 28.485 19.3837 29.8744 19.3837H31.6481V16.3837C30.7892 16.2942 29.9261 16.2516 29.0625 16.2562C26.5088 16.2562 24.75 17.8124 24.75 20.6831V23.1524H21.8663V26.5012H24.75V35.0943H28.215Z" fill="white"/>
</g>
<defs>
<clipPath id="clip0_94_329">
<rect width="24" height="24" fill="white" transform="translate(12 12)"/>
</clipPath>
</defs>
</svg>
