<svg xmlns="http://www.w3.org/2000/svg" width="48" height="48" fill="none">
    <rect width="46" height="46" x="1" y="1" fill="#fff" rx="7"/>
    <rect width="46" height="46" x="1" y="1" stroke="#1958A8" stroke-width="2" rx="7"/>
    <circle cx="24" cy="24" r="24" fill="#fff"/>
    <g clip-path="url(#a)">
        <path fill="#1958A8" d="M33.872 12.906H14.13c-.676 0-1.224.548-1.224 1.224v19.742c0 .676.548 1.224 1.224 1.224h19.742c.676 0 1.224-.548 1.224-1.224V14.13c0-.676-.548-1.224-1.224-1.224"/>
        <path fill="#fff" d="M28.215 35.094v-8.593h2.884l.431-3.349h-3.315v-2.137c0-.97.27-1.631 1.66-1.631h1.773v-3a24 24 0 0 0-2.585-.128c-2.554 0-4.313 1.556-4.313 4.427v2.47h-2.884V26.5h2.884v8.593z"/>
    </g>
    <defs>
        <clipPath id="a">
            <path fill="#fff" d="M12 12h24v24H12z"/>
        </clipPath>
    </defs>
</svg>
