<svg width="177" height="80" viewBox="0 0 177 80" fill="none" xmlns="http://www.w3.org/2000/svg">
<g clip-path="url(#clip0_63_3186)">
<path d="M147.353 23.293C146.68 24.5354 146.095 25.8231 145.602 27.1467C145.284 27.9836 145.034 28.7732 144.824 29.5425C144.382 28.9411 143.889 28.3788 143.351 27.8621L143.215 27.7271L143.175 27.6933C142.513 27.0395 141.778 26.4643 140.985 25.9791C140.014 25.4652 138.98 25.0796 137.909 24.8318C137.888 24.7926 137.87 24.752 137.855 24.7103C136.966 22.7396 136.313 20.6715 135.908 18.5486L144.608 15.9097C144.804 17.3745 145.174 18.8108 145.71 20.1885C146.145 21.2788 146.696 22.3195 147.353 23.293Z" fill="#00AEEF"/>
<path d="M144.824 29.5425C144.821 29.5717 144.821 29.6011 144.824 29.6303C144.395 28.9995 143.911 28.4078 143.378 27.8621C143.907 28.3799 144.391 28.9422 144.824 29.5425Z" fill="#6D6E71"/>
<path d="M153.497 48.9794L144.608 51.0446C143.941 49.1087 143.488 47.1059 143.256 45.0718L143.479 44.8693C144.283 44.1163 144.988 43.2635 145.575 42.3317C146.423 40.7697 146.923 39.0431 147.042 37.2701C147.555 37.7695 148.103 38.2554 148.711 38.7616C149.8 39.6605 150.95 40.4835 152.152 41.2249C152.081 42.3922 152.131 43.5638 152.301 44.7209C152.53 46.1827 152.931 47.6122 153.497 48.9794Z" fill="#00AEEF"/>
<path d="M147.048 37.2701C146.93 39.0431 146.43 40.7697 145.581 42.3318C144.994 43.2635 144.29 44.1163 143.486 44.8693L143.263 45.0718C143.263 44.9638 143.263 44.8491 143.263 44.7411C143.266 44.721 143.266 44.7005 143.263 44.6804C144.037 43.8892 144.715 43.0104 145.284 42.0618C146.142 40.5092 146.652 38.7891 146.778 37.0204C146.866 37.1013 146.954 37.1891 147.048 37.2701Z" fill="#6D6E71"/>
<path d="M173 46.867C169.955 46.8574 166.921 46.5202 163.948 45.8614C161.23 45.2975 158.584 44.4305 156.059 43.2766C154.718 42.6849 153.415 42.0086 152.159 41.2519C150.957 40.5105 149.807 39.6875 148.718 38.7886C148.11 38.2824 147.562 37.7965 147.048 37.2971C147.146 35.9705 147.013 34.6372 146.656 33.3557C146.316 32.1323 145.78 30.9722 145.068 29.9205L144.824 29.5695C145.034 28.8002 145.284 28.0105 145.602 27.1737C146.095 25.8501 146.68 24.5624 147.353 23.32C148.055 22.0301 148.839 20.7859 149.698 19.5946C151.306 17.3293 153.163 15.2511 155.235 13.3991C157.478 11.3441 159.934 9.53408 162.563 8L164.922 16.7736C163.423 18.0304 162.007 19.383 160.683 20.8229C158.974 22.5812 157.454 24.5129 156.147 26.5865C155.2 28.0377 154.405 29.5823 153.775 31.196C155.124 32.2788 156.583 33.2175 158.128 33.9968C160.299 35.1308 162.583 36.0356 164.942 36.6964C166.806 37.27 168.705 37.7209 170.627 38.0462L173 46.867Z" fill="#00AEEF"/>
<path d="M147.048 37.2701C146.954 37.1891 146.866 37.1013 146.778 37.0136C146.87 35.7431 146.751 34.4662 146.426 33.2342C146.096 31.9478 145.545 30.7284 144.797 29.6303C144.794 29.6011 144.794 29.5717 144.797 29.5425L145.041 29.8935C145.755 30.9447 146.294 32.1049 146.636 33.3287C146.999 34.609 147.139 35.9424 147.048 37.2701Z" fill="#6D6E71"/>
<path d="M147.048 37.2701C146.93 39.0431 146.43 40.7697 145.581 42.3318C144.994 43.2635 144.29 44.1163 143.486 44.8694L143.263 45.0718C142.554 45.7034 141.768 46.243 140.924 46.6781C139.998 47.1564 139.007 47.4975 137.983 47.6904C136.419 47.9444 134.828 47.9898 133.251 47.8254H133.048C131.263 47.7015 129.502 47.3453 127.809 46.7658C126.877 46.4756 125.842 46.0909 124.565 45.6927C123.889 45.4565 123.064 45.2068 122.178 44.9233C120.15 44.2484 117.122 43.3778 113.39 42.4397C115.373 40.6217 117.253 38.6953 119.021 36.6694C119.968 35.5761 120.725 34.6447 121.387 33.8079C122.226 32.7483 122.902 31.8574 123.611 31.0273C124.554 29.9081 125.617 28.8964 126.782 28.0105L127.62 27.3762C128.894 26.3527 130.344 25.5705 131.899 25.068C132.224 24.9735 132.562 24.8925 132.913 24.8251C134.651 24.5001 136.44 24.5739 138.145 25.041C139.226 25.3133 140.272 25.7096 141.262 26.2221C141.945 26.6409 142.585 27.1246 143.175 27.6664L143.215 27.7001L143.351 27.8351C143.889 28.3518 144.382 28.9141 144.824 29.5156L145.068 29.8665C145.775 30.9278 146.305 32.0972 146.636 33.3287C147 34.609 147.139 35.9424 147.048 37.2701Z" stroke="#2E56A6" stroke-width="0.5" stroke-miterlimit="10"/>
<path d="M131.899 25.0478C130.344 25.5502 128.894 26.3325 127.62 27.3559L126.782 27.9903C125.617 28.8761 124.554 29.8879 123.611 31.0071C122.902 31.8372 122.226 32.728 121.387 33.7876C120.876 33.1828 120.322 32.6145 119.731 32.0869C118.211 30.7558 116.528 29.622 114.722 28.7124C112.549 27.5684 110.263 26.6524 107.901 25.9791C106.037 25.4152 104.141 24.9644 102.223 24.6293L99.8636 15.8557C102.906 15.8716 105.938 16.211 108.908 16.8681C111.628 17.4365 114.275 18.3105 116.797 19.4732C118.295 20.1441 119.743 20.9199 121.131 21.7948L118.224 10.9965L127.451 8.47242L131.899 25.0478Z" fill="#1857A8"/>
<path d="M142.526 64.6167L133.292 67.0868L130.385 56.2885C129.627 57.7397 128.764 59.1337 127.803 60.4594C126.203 62.7064 124.357 64.7686 122.3 66.6076C120.053 68.6609 117.594 70.4707 114.965 72.0068L112.606 63.2332C114.102 61.9727 115.518 60.6202 116.845 59.1838C118.556 57.4233 120.078 55.4894 121.387 53.4135C122.497 51.7338 123.388 49.9194 124.037 48.0143C124.291 47.2493 124.488 46.4666 124.625 45.6725C125.903 46.0977 126.937 46.4553 127.87 46.7455C129.551 47.3268 131.301 47.6875 133.075 47.8186H133.278C134.855 47.9831 136.446 47.9377 138.01 47.6836L142.526 64.6167Z" fill="#1857A8"/>
<path d="M134.718 42.244C137.929 42.244 140.532 39.6454 140.532 36.4399C140.532 33.2344 137.929 30.6359 134.718 30.6359C131.507 30.6359 128.905 33.2344 128.905 36.4399C128.905 39.6454 131.507 42.244 134.718 42.244Z" fill="#00AEEF"/>
<path d="M16.1072 32.3973L22.1912 46.5026L28.2752 32.3973H38.307V60.6011H30.2356V47.1437L22.1641 64.6302L14.0927 47.2247V60.6011H6.028V34.4085L4 32.3839L16.1072 32.3973Z" fill="#1857A8"/>
<path d="M104.021 68.6593L81.8279 50.1875V60.6011H73.7564V34.4085L71.7352 32.4041H81.8279V45.4902L83.8424 42.4667L89.8926 32.4041H99.9852L90.8254 46.1179L93.9283 51.5575L104.021 68.6593Z" fill="#1857A8"/>
<path d="M65.996 36.5277C63.3466 33.8839 59.754 32.3987 56.0081 32.3987C52.2621 32.3987 48.6696 33.8839 46.0202 36.5277C44.6833 37.8133 43.6242 39.3586 42.9081 41.0682C42.1919 42.7779 41.8339 44.6158 41.856 46.4688C41.8551 48.3214 42.22 50.156 42.9297 51.8677C43.6394 53.5795 44.68 55.1348 45.9921 56.4447C47.3043 57.7547 48.8621 58.7936 50.5766 59.5022C52.2912 60.2107 54.1288 60.575 55.9844 60.5741C57.8417 60.5776 59.6815 60.2154 61.3984 59.508C63.1153 58.8007 64.6755 57.7621 65.9898 56.4519C67.3041 55.1417 68.3465 53.5855 69.0575 51.8724C69.7685 50.1594 70.134 48.3231 70.1331 46.4688C70.1587 44.6178 69.8049 42.781 69.0934 41.0715C68.382 39.3619 67.3279 37.8156 65.996 36.5277ZM60.2838 50.7679C59.7257 51.3458 59.0579 51.8069 58.3193 52.1241C57.5807 52.4414 56.7862 52.6085 55.9822 52.6157C55.1782 52.6228 54.3808 52.47 53.6367 52.166C52.8926 51.8619 52.2166 51.4129 51.6483 50.8451C51.0799 50.2772 50.6307 49.602 50.3268 48.8588C50.0228 48.1157 49.8703 47.3195 49.8782 46.5168C49.886 45.7141 50.054 44.921 50.3724 44.1839C50.6907 43.4468 51.1531 42.7804 51.7324 42.2238C52.2904 41.6459 52.9582 41.1848 53.6968 40.8676C54.4354 40.5503 55.2299 40.3832 56.0339 40.376C56.8379 40.3688 57.6353 40.5217 58.3794 40.8257C59.1236 41.1297 59.7996 41.5788 60.3679 42.1466C60.9362 42.7144 61.3854 43.3897 61.6894 44.1328C61.9933 44.876 62.1458 45.6722 62.138 46.4749C62.1301 47.2776 61.9621 48.0706 61.6438 48.8077C61.3254 49.5449 60.8631 50.2112 60.2838 50.7679Z" fill="#1857A8"/>
<path d="M6.14968 71.892V66.4929H4V65.7505H9.14436V66.4929H7.0082V71.892H6.14968Z" fill="#231F20"/>
<path d="M10.084 71.892V65.7168H13.3423C13.7055 65.7027 14.0662 65.7817 14.3901 65.9462C14.6594 66.089 14.8787 66.3103 15.0188 66.5806C15.1586 66.8757 15.228 67.1991 15.2216 67.5255C15.2328 67.9094 15.1343 68.2886 14.9377 68.6188C14.7533 68.9251 14.4729 69.1623 14.14 69.2937L15.4379 71.9055H14.5186L13.3085 69.4152H10.956V71.8785L10.084 71.892ZM10.9425 68.6998H13.2612C13.4097 68.708 13.5582 68.6845 13.6969 68.631C13.8356 68.5775 13.9613 68.4951 14.0656 68.3893C14.2711 68.1499 14.3754 67.8402 14.3563 67.5255C14.3628 67.3251 14.321 67.126 14.2346 66.9451C14.1485 66.7903 14.0194 66.6638 13.8628 66.5806C13.676 66.4888 13.4693 66.4447 13.2612 66.4524H10.956L10.9425 68.6998Z" fill="#231F20"/>
<path d="M15.9382 71.892L18.3853 65.7168H19.548L21.9951 71.892H21.0352L20.4336 70.36H17.4186L16.844 71.892H15.9382ZM17.7025 69.6311H20.1429L19.3925 67.6942C19.3711 67.618 19.344 67.5436 19.3114 67.4715C19.3114 67.3702 19.237 67.269 19.1965 67.1475C19.1559 67.026 19.1086 66.9113 19.068 66.7898L18.9531 66.4524H18.872L18.73 66.8641L18.5678 67.323C18.5137 67.4647 18.4664 67.593 18.4326 67.6942L17.7025 69.6311Z" fill="#231F20"/>
<path d="M24.1718 71.892L21.8667 65.7168H22.7928L24.3814 70.0901C24.4152 70.171 24.4558 70.2655 24.4896 70.3735C24.5234 70.4815 24.5639 70.5895 24.5977 70.6907C24.6315 70.7919 24.6653 70.8864 24.6991 70.9607H24.7532C24.7532 70.8932 24.8073 70.8054 24.8411 70.7042C24.8749 70.603 24.9154 70.495 24.9492 70.3938C24.983 70.2925 25.0236 70.1845 25.0574 70.0901L26.6257 65.7168H27.5248L25.2129 71.892H24.1718Z" fill="#231F20"/>
<path d="M28.3901 71.892V65.7168H33.1559V66.4524H29.2486V68.3623H32.757V69.098H29.2486V71.1226H33.21V71.865L28.3901 71.892Z" fill="#231F20"/>
<path d="M34.4944 71.892V65.7168H35.3529V71.1159H38.4287V71.865L34.4944 71.892Z" fill="#231F20"/>
<path d="M43.208 72C42.7945 72.0063 42.3837 71.933 41.998 71.784C41.6718 71.6621 41.3862 71.4517 41.1732 71.1766C40.9749 70.8925 40.8686 70.5545 40.8686 70.2082C40.8686 69.8618 40.9749 69.5238 41.1732 69.2397C41.387 68.9986 41.6665 68.825 41.9777 68.7403C41.7188 68.6155 41.4887 68.4386 41.3017 68.2206C41.1065 67.9736 41.008 67.6642 41.0245 67.35C41.0137 67.0189 41.1136 66.6936 41.3084 66.4254C41.5132 66.1612 41.7903 65.9619 42.1061 65.8517C42.4927 65.7177 42.9002 65.6537 43.3094 65.6628C43.7107 65.6561 44.1097 65.7248 44.4856 65.8652C44.7998 65.9886 45.0752 66.1937 45.2833 66.4591C45.4738 66.7167 45.5736 67.0299 45.5672 67.35V67.5052H44.7763V67.404C44.7933 67.1555 44.7161 66.9098 44.56 66.7156C44.4225 66.5526 44.2423 66.4311 44.0395 66.3646C43.7924 66.2876 43.5344 66.2512 43.2756 66.2567C43.0917 66.2566 42.9083 66.2747 42.728 66.3107C42.5627 66.3458 42.4048 66.4098 42.2616 66.4996C42.1281 66.579 42.0166 66.6903 41.9371 66.8236C41.8579 66.9755 41.8184 67.145 41.8222 67.3162C41.8143 67.5333 41.8785 67.7468 42.0047 67.9236C42.1265 68.0841 42.2902 68.2079 42.4779 68.2813C42.6809 68.3581 42.8963 68.397 43.1134 68.3961H43.6744V69.071H43.1336C42.9051 69.0729 42.6779 69.1047 42.4576 69.1654C42.249 69.217 42.0606 69.3299 41.9168 69.4894C41.7726 69.6839 41.7009 69.9226 41.714 70.1643C41.7011 70.4049 41.7702 70.6428 41.9101 70.8392C42.0514 71.0132 42.2424 71.1403 42.4576 71.2036C42.7264 71.2889 43.0072 71.33 43.2891 71.3251C43.5738 71.3307 43.8574 71.2873 44.1274 71.1969C44.3282 71.1234 44.5008 70.9889 44.6208 70.8122C44.7336 70.6177 44.7898 70.3957 44.7831 70.171V68.4231H46.3446V69.098H45.5672V70.1508C45.5786 70.5044 45.487 70.8537 45.3036 71.1564C45.1122 71.4446 44.8358 71.6663 44.5127 71.7908C44.0955 71.9445 43.6524 72.0156 43.208 72Z" fill="#231F20"/>
<path d="M50.8536 71.892V66.4929H48.7309V65.7505H53.8482V66.4929H51.7121V71.892H50.8536Z" fill="#231F20"/>
<path d="M57.404 72C56.8322 72.0125 56.2653 71.8923 55.7478 71.6491C55.2908 71.4134 54.9196 71.0404 54.6865 70.5827C54.4414 70.0194 54.315 69.4118 54.315 68.7976C54.315 68.1835 54.4414 67.5759 54.6865 67.0125C54.9204 66.5588 55.2918 66.1903 55.7478 65.9597C56.2688 65.727 56.8332 65.6067 57.404 65.6067C57.9748 65.6067 58.5392 65.727 59.0602 65.9597C59.5128 66.1903 59.8799 66.5592 60.108 67.0125C60.3575 67.5747 60.4863 68.1828 60.4863 68.7976C60.4863 69.4125 60.3575 70.0206 60.108 70.5827C59.8768 71.0418 59.505 71.4153 59.0467 71.6491C58.5336 71.891 57.9714 72.0111 57.404 72ZM57.404 71.2576C57.7158 71.2636 58.0265 71.218 58.3234 71.1226C58.5802 71.0384 58.8123 70.8924 58.9994 70.6975C59.1965 70.4848 59.3442 70.2313 59.432 69.9551C59.5411 69.615 59.5937 69.2593 59.5875 68.9022V68.7403C59.5977 68.3697 59.5451 68.0001 59.432 67.6469C59.3422 67.3701 59.1922 67.1166 58.9926 66.9046C58.8056 66.7097 58.5734 66.5637 58.3166 66.4794C58.019 66.3872 57.7088 66.3417 57.3972 66.3444C57.0856 66.3413 56.7754 66.3868 56.4779 66.4794C56.2211 66.5637 55.9889 66.7097 55.8019 66.9046C55.5976 67.113 55.4469 67.3677 55.3625 67.6469C55.2382 67.9981 55.1742 68.3678 55.1732 68.7403V68.9292C55.165 69.2859 55.2152 69.6416 55.3219 69.9821C55.4063 70.2613 55.557 70.516 55.7613 70.7245C55.9483 70.9193 56.1805 71.0654 56.4373 71.1496C56.7508 71.2417 57.0779 71.2782 57.404 71.2576Z" fill="#231F20"/>
<path d="M64.2046 72C63.7409 72.0102 63.2802 71.9228 62.8526 71.7435C62.4816 71.5843 62.1764 71.3033 61.9873 70.9472C61.7688 70.5148 61.6642 70.034 61.6831 69.5501V65.7168H62.5416V69.6379C62.5241 69.8594 62.5535 70.082 62.6281 70.2914C62.7026 70.5007 62.8206 70.692 62.9742 70.8527C63.3171 71.1403 63.7576 71.2853 64.2046 71.2576C64.6596 71.2841 65.1082 71.1397 65.4619 70.8527C65.6191 70.6939 65.7402 70.5033 65.8172 70.2937C65.8942 70.0841 65.9252 69.8604 65.9081 69.6379V65.7168H66.7598V69.5501C66.7801 70.0349 66.6729 70.5166 66.4489 70.9472C66.2542 71.3039 65.9446 71.5846 65.5701 71.7435C65.1381 71.9241 64.6727 72.0114 64.2046 72Z" fill="#231F20"/>
<path d="M68.2944 71.892V65.7168H71.5459C71.9091 65.7027 72.2698 65.7817 72.5937 65.9462C72.8659 66.085 73.0863 66.3074 73.2224 66.5806C73.3677 66.874 73.4396 67.1982 73.432 67.5255C73.4442 67.9104 73.3431 68.2905 73.1413 68.6188C72.9614 68.9264 72.6827 69.1642 72.3504 69.2937L73.628 71.892H72.6884L71.4986 69.4152H69.1461V71.8785L68.2944 71.892ZM69.1461 68.6998H71.4648C71.6133 68.7084 71.762 68.6852 71.9007 68.6316C72.0395 68.5781 72.1652 68.4955 72.2692 68.3893C72.4766 68.1506 72.5832 67.841 72.5667 67.5255C72.5744 67.3242 72.5302 67.1243 72.4382 66.9451C72.3541 66.7888 72.2244 66.6618 72.0664 66.5806C71.8799 66.488 71.673 66.4439 71.4648 66.4524H69.1461V68.6998Z" fill="#231F20"/>
<path d="M77.1162 72C76.7912 72.0011 76.4671 71.9672 76.1495 71.8988C75.859 71.8389 75.5804 71.7317 75.3248 71.5816C75.0888 71.4405 74.8915 71.2435 74.7502 71.0079C74.602 70.7447 74.5295 70.4458 74.5406 70.144V70.0496C74.5442 70.0204 74.5442 69.991 74.5406 69.9618H75.4059V70.0496C75.4029 70.0832 75.4029 70.1171 75.4059 70.1508C75.4103 70.3793 75.4995 70.5981 75.656 70.7649C75.8168 70.9436 76.0257 71.0724 76.2576 71.1361C76.538 71.2213 76.8299 71.2623 77.1229 71.2576C77.276 71.2673 77.4295 71.2673 77.5826 71.2576C77.7388 71.2431 77.893 71.2114 78.0423 71.1631C78.1809 71.1241 78.313 71.065 78.4344 70.9877C78.5482 70.9145 78.645 70.8179 78.7183 70.7042C78.7963 70.5605 78.8308 70.3972 78.8176 70.2343C78.8044 70.0713 78.7441 69.9157 78.6439 69.7864C78.5152 69.6427 78.3558 69.5297 78.1775 69.4557C77.9592 69.358 77.7331 69.279 77.5015 69.2194L76.7444 69.017C76.4875 68.9495 76.2374 68.8752 75.994 68.7875C75.7565 68.707 75.5295 68.5983 75.318 68.4636C75.132 68.3388 74.9752 68.1753 74.8583 67.9844C74.7387 67.7798 74.6779 67.5463 74.6826 67.3095C74.6788 67.0753 74.7322 66.8437 74.838 66.6346C74.948 66.4254 75.1082 66.2469 75.3045 66.1149C75.5401 65.9621 75.801 65.8524 76.0751 65.791C76.4212 65.7142 76.7752 65.6779 77.1297 65.683C77.4346 65.6807 77.7387 65.7147 78.0355 65.7842C78.3001 65.8455 78.5518 65.9529 78.7791 66.1014C79.0044 66.2434 79.1865 66.4443 79.3057 66.6822C79.4248 66.9201 79.4765 67.1861 79.4551 67.4512V67.5592H78.6101V67.4242C78.6157 67.2333 78.548 67.0474 78.4208 66.9046C78.2799 66.7486 78.1004 66.6322 77.9003 66.5671C77.6605 66.4882 77.4092 66.4495 77.1567 66.4524C76.8538 66.4458 76.5514 66.4798 76.2576 66.5536C76.0559 66.6023 75.8713 66.705 75.7236 66.8506C75.6667 66.9085 75.6219 66.9771 75.5918 67.0524C75.5616 67.1277 75.5467 67.2082 75.5478 67.2893C75.5438 67.3747 75.5573 67.4601 75.5875 67.5402C75.6177 67.6203 75.6641 67.6934 75.7236 67.7549C75.8523 67.8906 76.0092 67.9966 76.1833 68.0654C76.4035 68.1544 76.6293 68.2288 76.8593 68.2881L77.6096 68.4906C77.8665 68.558 78.1166 68.639 78.36 68.7268C78.5975 68.8073 78.8245 68.916 79.036 69.0507C79.2273 69.1742 79.3871 69.3406 79.5024 69.5366C79.6224 69.7555 79.6807 70.0027 79.6714 70.252C79.6885 70.634 79.574 71.0104 79.347 71.3184C79.1143 71.6008 78.8042 71.8096 78.4546 71.919C78.0155 72.0156 77.5638 72.0429 77.1162 72Z" fill="#231F20"/>
<path d="M82.8013 71.892V65.7168H83.6531V71.892H82.8013Z" fill="#231F20"/>
<path d="M85.2079 71.892V65.7168H86.0326L89.0408 69.7661L89.1557 69.9348L89.2977 70.144L89.4194 70.3263V65.7168H90.2576V71.892H89.4734L86.472 67.7482C86.4314 67.6807 86.3706 67.5862 86.2895 67.4715L86.0867 67.1813H86.0394V71.9055L85.2079 71.892Z" fill="#231F20"/>
<path d="M94.4826 72C93.9276 72.0178 93.377 71.8972 92.8805 71.6491C92.4408 71.4166 92.0894 71.0468 91.88 70.5962C91.6309 70.0314 91.513 69.4177 91.5352 68.801C91.5 68.3686 91.5511 67.9336 91.6857 67.5211C91.8203 67.1086 92.0357 66.727 92.3194 66.3984C92.6104 66.1254 92.9541 65.9145 93.3295 65.7787C93.705 65.6429 94.1043 65.5851 94.5029 65.6088C94.9841 65.5982 95.4625 65.6854 95.909 65.8652C96.298 66.0214 96.6321 66.2891 96.8689 66.6346C97.111 67.0249 97.231 67.4784 97.2136 67.9371H96.3416C96.3544 67.6241 96.2745 67.3142 96.1118 67.0463C95.9554 66.8105 95.7316 66.6271 95.4696 66.5199C95.1598 66.398 94.829 66.3383 94.4961 66.3444C94.1071 66.3328 93.7213 66.4187 93.374 66.5941C93.0551 66.7733 92.8053 67.0535 92.6642 67.3905C92.4875 67.8179 92.4045 68.2782 92.4208 68.7403V68.9292C92.4017 69.3915 92.4848 69.8524 92.6642 70.279C92.7994 70.6005 93.037 70.8685 93.3402 71.0417C93.6913 71.2124 94.0786 71.2958 94.4691 71.2846C94.8081 71.2932 95.1456 71.2359 95.4628 71.1159C95.738 71.0158 95.9745 70.8315 96.1388 70.5895C96.3024 70.3195 96.3824 70.0072 96.3686 69.6919H97.2069C97.2251 70.1568 97.1001 70.6161 96.8486 71.0079C96.6087 71.3517 96.2724 71.617 95.8819 71.7705C95.4351 71.9379 94.9596 72.0159 94.4826 72Z" fill="#231F20"/>
<path d="M98.4305 71.892V70.9472H99.316V71.892H98.4305Z" fill="#231F20"/>
</g>
<defs>
<clipPath id="clip0_63_3186">
<rect width="169" height="64" fill="white" transform="translate(4 8)"/>
</clipPath>
</defs>
</svg>
