<svg xmlns="http://www.w3.org/2000/svg" width="177" height="80" fill="none">
    <g clip-path="url(#a)">
        <path fill="#00AEEF" d="M147.353 23.293a30 30 0 0 0-1.751 3.854 26 26 0 0 0-.778 2.396 13 13 0 0 0-1.473-1.68l-.136-.136-.04-.034a12 12 0 0 0-2.19-1.714c-.971-.514-2.005-.9-3.076-1.147a1 1 0 0 1-.054-.122 27.5 27.5 0 0 1-1.947-6.161l8.7-2.64a18.6 18.6 0 0 0 1.102 4.28c.435 1.09.986 2.13 1.643 3.104"/>
        <path fill="#6D6E71" d="M144.824 29.543a.4.4 0 0 0 0 .087 13 13 0 0 0-1.446-1.768q.795.779 1.446 1.68"/>
        <path fill="#00AEEF" d="m153.497 48.98-8.889 2.065a28 28 0 0 1-1.352-5.973l.223-.203a13 13 0 0 0 2.096-2.537 12.3 12.3 0 0 0 1.467-5.062c.513.5 1.061.985 1.669 1.492a31 31 0 0 0 3.441 2.463 17 17 0 0 0 .149 3.496c.229 1.462.63 2.891 1.196 4.258"/>
        <path fill="#6D6E71" d="M147.048 37.27a12.3 12.3 0 0 1-1.467 5.062 13 13 0 0 1-2.095 2.537l-.223.203v-.33a.2.2 0 0 0 0-.062 14.2 14.2 0 0 0 2.021-2.618 12.2 12.2 0 0 0 1.494-5.042c.088.081.176.17.27.25"/>
        <path fill="#00AEEF" d="M173 46.867a42.5 42.5 0 0 1-9.052-1.006 37 37 0 0 1-7.889-2.584 35 35 0 0 1-3.9-2.025 31 31 0 0 1-3.441-2.463 29 29 0 0 1-1.67-1.492 11.5 11.5 0 0 0-.392-3.941 11.7 11.7 0 0 0-1.588-3.436l-.244-.35c.21-.77.46-1.56.778-2.396a30 30 0 0 1 1.751-3.854 35 35 0 0 1 2.345-3.725 37 37 0 0 1 5.537-6.196A42.7 42.7 0 0 1 162.563 8l2.359 8.774a45 45 0 0 0-4.239 4.049 35.2 35.2 0 0 0-4.536 5.764 25.2 25.2 0 0 0-2.372 4.609 24.8 24.8 0 0 0 4.353 2.8 35.3 35.3 0 0 0 6.814 2.7 45 45 0 0 0 5.685 1.35z"/>
        <path fill="#6D6E71" d="M147.048 37.27c-.094-.08-.182-.169-.27-.256a11.6 11.6 0 0 0-.352-3.78 11.5 11.5 0 0 0-1.629-3.604.4.4 0 0 1 0-.087l.244.35a11.7 11.7 0 0 1 1.595 3.436 11.6 11.6 0 0 1 .412 3.941"/>
        <path stroke="#2E56A6" stroke-miterlimit="10" stroke-width=".5" d="M147.048 37.27a12.3 12.3 0 0 1-1.467 5.062 13 13 0 0 1-2.095 2.537l-.223.203a11.3 11.3 0 0 1-2.339 1.606c-.926.478-1.917.82-2.941 1.012-1.564.254-3.155.3-4.732.135h-.203a20.6 20.6 0 0 1-5.239-1.06c-.932-.29-1.967-.674-3.244-1.072-.676-.236-1.501-.486-2.387-.77-2.028-.675-5.056-1.545-8.788-2.483a73 73 0 0 0 5.631-5.77 81 81 0 0 0 2.366-2.862c.839-1.06 1.515-1.95 2.224-2.78a20 20 0 0 1 3.171-3.017l.838-.635a13.4 13.4 0 0 1 4.279-2.308q.488-.142 1.014-.243a11.7 11.7 0 0 1 5.232.216c1.081.272 2.127.669 3.117 1.181q1.026.63 1.913 1.444l.04.034.136.135a13 13 0 0 1 1.473 1.68l.244.351a11.7 11.7 0 0 1 1.568 3.463c.364 1.28.503 2.613.412 3.941Z"/>
        <path fill="#1857A8" d="M131.899 25.048a13.4 13.4 0 0 0-4.279 2.308l-.838.634a20 20 0 0 0-3.171 3.017c-.709.83-1.385 1.721-2.224 2.78a17 17 0 0 0-1.656-1.7 24 24 0 0 0-5.009-3.375 35.6 35.6 0 0 0-6.821-2.733 48 48 0 0 0-5.678-1.35l-2.36-8.773a43 43 0 0 1 9.045 1.012 37 37 0 0 1 7.889 2.605 35 35 0 0 1 4.334 2.322l-2.907-10.799 9.227-2.524zm10.627 39.569-9.234 2.47-2.907-10.799a34 34 0 0 1-2.582 4.171 37 37 0 0 1-5.503 6.149 43 43 0 0 1-7.335 5.399l-2.359-8.774a47 47 0 0 0 4.239-4.05 35.3 35.3 0 0 0 4.542-5.77 23.6 23.6 0 0 0 2.65-5.399 16 16 0 0 0 .588-2.342c1.278.426 2.312.783 3.245 1.074 1.681.58 3.431.941 5.205 1.073h.203a18 18 0 0 0 4.732-.135z"/>
        <path fill="#00AEEF" d="M134.718 42.244a5.81 5.81 0 0 0 5.814-5.804 5.81 5.81 0 0 0-5.814-5.804 5.81 5.81 0 0 0-5.813 5.804 5.81 5.81 0 0 0 5.813 5.804"/>
        <path fill="#1857A8" d="m16.107 32.397 6.084 14.106 6.084-14.106h10.032v28.204h-8.071V47.144L22.164 64.63l-8.071-17.405V60.6H6.028V34.408L4 32.384zm87.914 36.263L81.828 50.187V60.6h-8.072V34.408l-2.02-2.004h10.092V45.49l2.014-3.023 6.05-10.063h10.093l-9.16 13.714 3.103 5.44zM65.996 36.528a14.14 14.14 0 0 0-9.988-4.13 14.14 14.14 0 0 0-9.988 4.13 13.58 13.58 0 0 0-4.164 9.94 14.08 14.08 0 0 0 4.136 9.977 14.13 14.13 0 0 0 9.992 4.13 14.14 14.14 0 0 0 10.006-4.123 14.1 14.1 0 0 0 4.143-9.983 13.56 13.56 0 0 0-4.137-9.941m-5.712 14.24a6.05 6.05 0 0 1-4.302 1.848 6.06 6.06 0 0 1-4.334-1.77 6.04 6.04 0 0 1-1.276-6.662 6 6 0 0 1 1.36-1.96 6.05 6.05 0 0 1 4.302-1.848 6.06 6.06 0 0 1 4.334 1.77 6.04 6.04 0 0 1 1.77 4.329 6.03 6.03 0 0 1-1.854 4.293"/>
        <path fill="#231F20" d="M6.15 71.892v-5.4H4v-.742h5.144v.743H7.008v5.399zm3.934 0v-6.175h3.258c.364-.014.724.065 1.048.23.27.142.489.363.629.634.14.295.209.618.203.944a2.04 2.04 0 0 1-.284 1.094 1.63 1.63 0 0 1-.798.675l1.298 2.612h-.92l-1.21-2.49h-2.352v2.463zm.859-3.192h2.318a1.05 1.05 0 0 0 .805-.31c.205-.24.31-.55.29-.865a1.25 1.25 0 0 0-.121-.58.9.9 0 0 0-.372-.364 1.26 1.26 0 0 0-.602-.129h-2.305zm4.995 3.192 2.447-6.175h1.163l2.447 6.175h-.96l-.601-1.532h-3.015l-.575 1.532zm1.765-2.26h2.44l-.75-1.938a2 2 0 0 0-.082-.222c0-.102-.074-.203-.114-.325-.041-.121-.088-.236-.129-.357l-.115-.338h-.081l-.142.412-.162.459c-.054.142-.102.27-.135.371zm6.469 2.26-2.305-6.175h.926l1.588 4.373c.034.081.075.175.109.284.033.108.074.216.108.317.034.1.067.195.101.27h.054c0-.068.054-.156.088-.257s.074-.209.108-.31.075-.21.108-.304l1.569-4.373h.899l-2.312 6.175zm4.218 0v-6.175h4.766v.735h-3.907v1.91h3.508v.736h-3.508v2.025h3.961v.742zm6.104 0v-6.175h.859v5.399h3.076v.749zm8.714.108a3.2 3.2 0 0 1-1.21-.216 1.87 1.87 0 0 1-.825-.607 1.69 1.69 0 0 1 0-1.937 1.66 1.66 0 0 1 .805-.5 2.1 2.1 0 0 1-.676-.52 1.3 1.3 0 0 1-.277-.87 1.5 1.5 0 0 1 .283-.925 1.73 1.73 0 0 1 .798-.573 3.4 3.4 0 0 1 1.203-.19c.402-.006.8.063 1.177.203.314.124.59.329.797.594.19.258.29.57.284.891v.155h-.79v-.101a1 1 0 0 0-.217-.688 1.15 1.15 0 0 0-.52-.351 2.4 2.4 0 0 0-.764-.108q-.277 0-.548.054a1.4 1.4 0 0 0-.466.189.9.9 0 0 0-.325.324c-.08.151-.119.321-.115.492a1 1 0 0 0 .183.608c.121.16.285.284.473.357.203.077.418.116.635.115h.561v.675h-.54a2.6 2.6 0 0 0-.676.094 1.1 1.1 0 0 0-.541.324 1.04 1.04 0 0 0-.203.675c-.013.24.056.479.196.675.141.174.332.301.548.365a2.6 2.6 0 0 0 .831.121c.285.006.568-.038.838-.128.201-.074.374-.208.494-.385.113-.194.169-.416.162-.641v-1.748h1.562v.675h-.778v1.053c.012.353-.08.703-.263 1.005a1.67 1.67 0 0 1-.791.635c-.417.154-.86.225-1.305.209m7.646-.108v-5.4H48.73v-.742h5.117v.743h-2.136v5.399zm6.55.108a3.7 3.7 0 0 1-1.656-.35 2.45 2.45 0 0 1-1.061-1.067 4.47 4.47 0 0 1 0-3.57 2.42 2.42 0 0 1 1.06-1.053 4.06 4.06 0 0 1 3.313 0c.453.23.82.6 1.048 1.053a4.4 4.4 0 0 1 0 3.57 2.42 2.42 0 0 1-1.061 1.066 3.7 3.7 0 0 1-1.643.351m0-.742c.312.006.622-.04.92-.135a1.65 1.65 0 0 0 .675-.425 2 2 0 0 0 .433-.743c.11-.34.162-.696.155-1.053v-.162c.01-.37-.042-.74-.155-1.093a2 2 0 0 0-.44-.742 1.65 1.65 0 0 0-.675-.426 3 3 0 0 0-.92-.135 3 3 0 0 0-.92.135 1.65 1.65 0 0 0-.675.426 1.8 1.8 0 0 0-.44.742c-.124.351-.188.72-.189 1.093v.19a3.3 3.3 0 0 0 .149 1.052c.084.28.235.534.44.743.186.194.419.34.675.425.314.092.64.128.967.108m6.801.742a3.3 3.3 0 0 1-1.352-.257 1.77 1.77 0 0 1-.866-.796 2.85 2.85 0 0 1-.304-1.397v-3.833h.859v3.92a1.58 1.58 0 0 0 .432 1.216c.343.287.784.432 1.23.405a1.83 1.83 0 0 0 1.258-.405 1.56 1.56 0 0 0 .446-1.215v-3.921h.852v3.833c.02.485-.087.967-.311 1.397a1.8 1.8 0 0 1-.879.796 3.3 3.3 0 0 1-1.365.257m4.089-.108v-6.175h3.252c.363-.014.724.065 1.048.23.272.138.492.36.628.634.146.293.218.617.21.944a2 2 0 0 1-.29 1.094 1.6 1.6 0 0 1-.792.675l1.278 2.598h-.94l-1.19-2.477h-2.352v2.463zm.852-3.192h2.319a1.04 1.04 0 0 0 .804-.31 1.22 1.22 0 0 0 .298-.865 1.2 1.2 0 0 0-.129-.58.9.9 0 0 0-.372-.364 1.24 1.24 0 0 0-.601-.129h-2.319zm7.97 3.3a4.5 4.5 0 0 1-.966-.101 2.7 2.7 0 0 1-.825-.317 1.7 1.7 0 0 1-.575-.574 1.64 1.64 0 0 1-.21-.864v-.094a.4.4 0 0 0 0-.088h.866v.088a1 1 0 0 0 0 .1.92.92 0 0 0 .25.615c.16.179.37.307.602.371.28.085.572.126.865.122q.23.015.46 0 .234-.023.46-.095.208-.059.391-.175a.95.95 0 0 0 .284-.284.84.84 0 0 0-.074-.918 1.3 1.3 0 0 0-.467-.33 4 4 0 0 0-.676-.237l-.757-.202a9 9 0 0 1-.75-.23 3 3 0 0 1-.676-.323 1.6 1.6 0 0 1-.46-.48 1.3 1.3 0 0 1-.175-.674c-.004-.235.05-.466.155-.675.11-.21.27-.388.467-.52.235-.153.496-.263.77-.324q.52-.115 1.055-.108.459-.003.906.101c.264.061.516.169.743.317a1.46 1.46 0 0 1 .676 1.35v.108h-.845v-.135a.75.75 0 0 0-.19-.52 1.2 1.2 0 0 0-.52-.337 2.3 2.3 0 0 0-.743-.115 3.4 3.4 0 0 0-.9.102 1.14 1.14 0 0 0-.533.297.6.6 0 0 0-.176.438.63.63 0 0 0 .176.466c.128.136.285.242.46.31q.33.135.675.223l.75.203q.387.102.751.236c.237.08.465.189.676.324.191.123.351.29.466.486.12.218.179.466.17.715.017.382-.098.758-.325 1.066a1.9 1.9 0 0 1-.892.601c-.44.097-.891.124-1.339.081m5.685-.108v-6.175h.852v6.175zm2.407 0v-6.175h.825l3.008 4.05.115.168.142.209.121.182v-4.61h.839v6.176h-.785l-3.001-4.144a5 5 0 0 0-.182-.276l-.203-.29h-.048v4.724zm9.275.108a3.34 3.34 0 0 1-1.603-.35 2.28 2.28 0 0 1-1-1.054 4.1 4.1 0 0 1-.345-1.795 3.27 3.27 0 0 1 .784-2.403 2.94 2.94 0 0 1 2.184-.79c.481-.01.96.077 1.406.257.389.156.723.424.96.77.242.39.362.843.345 1.302h-.872a1.6 1.6 0 0 0-.23-.89 1.4 1.4 0 0 0-.642-.527 2.5 2.5 0 0 0-.974-.176 2.34 2.34 0 0 0-1.122.25 1.64 1.64 0 0 0-.71.797c-.177.427-.26.887-.243 1.35v.188c-.02.462.064.923.243 1.35.135.322.373.59.676.763.351.17.739.254 1.13.243a2.6 2.6 0 0 0 .993-.17c.275-.1.512-.283.676-.525a1.6 1.6 0 0 0 .23-.898h.838c.018.465-.107.924-.358 1.316-.24.344-.577.609-.967.763a3.6 3.6 0 0 1-1.4.229m3.948-.108v-.945h.886v.945z"/>
    </g>
    <defs>
        <clipPath id="a">
            <path fill="#fff" d="M4 8h169v64H4z"/>
        </clipPath>
    </defs>
</svg>
