<svg xmlns="http://www.w3.org/2000/svg" width="48" height="48" fill="none">
    <rect width="46" height="46" x="1" y="1" fill="#fff" rx="7"/>
    <rect width="46" height="46" x="1" y="1" stroke="#1958A8" stroke-width="2" rx="7"/>
    <circle cx="24" cy="24" r="24" fill="#fff"/>
    <g clip-path="url(#a)">
        <path fill="#1857A8" fill-rule="evenodd" d="M30.985 28.945c-.289.819-1.439 1.496-2.355 1.694-.628.134-1.446.239-4.204-.904-3.097-1.283-7.398-5.854-7.398-8.895 0-1.549.893-3.352 2.454-3.352.751 0 .917.015 1.164.608.29.698.995 2.42 1.079 2.596.347.724-.353 1.147-.86 1.777-.163.19-.346.395-.141.748.204.346.91 1.496 1.946 2.419 1.34 1.193 2.426 1.574 2.814 1.736.29.12.635.092.846-.134.268-.289.6-.769.939-1.242.239-.338.542-.38.86-.26.215.074 2.945 1.342 3.06 1.545.085.147.085.846-.204 1.664M24.002 12h-.006C17.381 12 12 17.382 12 24c0 2.624.846 5.058 2.285 7.033l-1.495 4.459 4.611-1.474A11.9 11.9 0 0 0 24.002 36C30.618 36 36 30.618 36 24s-5.382-12-11.998-12" clip-rule="evenodd"/>
    </g>
    <defs>
        <clipPath id="a">
            <path fill="#fff" d="M12 12h24v24H12z"/>
        </clipPath>
    </defs>
</svg>
